<svg xmlns="http://www.w3.org/2000/svg" xmlns:xlink="http://www.w3.org/1999/xlink" width="512" height="512" viewBox="0 0 512 512">
<!-- Launcher icon for SailfishOS: square background as on the Terminal icon
     (Sailfish Apps icon template, CC BY 3.0), the line art of the AsteroidOS
     icon, and the AsteroidOS logo in colour in place of its outline. -->
<defs><radialGradient id="bg" cx="256" cy="256" r="256" gradientUnits="userSpaceOnUse"><stop offset="0" stop-color="#2f3f73"/><stop offset="1" stop-color="#0a0f24"/></radialGradient></defs>
<rect x="1.8" y="1.8" width="508.4" height="508.4" rx="8.5" ry="8.5" fill="url(#bg)"/>
<g transform="translate(256 256) scale(0.9) translate(-256.0 -262.0)">
<path fill="none" d="m111.68 114.26 17.733 40.787 40.084 17.274a2.89 2.89 0 0 1 0 4.084l-55.431 16.654-2.386 41.408a2.86 2.86 0 0 1-4.067 0L55.718 221.35l-5.922-44.945a2.89 2.89 0 0 1 0-4.084l57.817-58.061c1.127-1.131 4.067 0 4.067 0v0" style="color:#000;clip-rule:nonzero;display:inline;overflow:visible;visibility:visible;opacity:1;isolation:auto;mix-blend-mode:normal;color-interpolation:sRGB;color-interpolation-filters:linearRGB;solid-color:#000;solid-opacity:1;fill:#f67c5f;fill-opacity:0;fill-rule:evenodd;stroke:#ffffff;stroke-width:16;stroke-linecap:round;stroke-linejoin:miter;stroke-miterlimit:4;stroke-dasharray:none;stroke-dashoffset:0;stroke-opacity:1;color-rendering:auto;image-rendering:auto;shape-rendering:auto;text-rendering:auto"/>
<path fill="none" d="m119.863 381.254 46.06 34.25c.584.585.584 1.53 0 2.115l-46.06 25.853a1.48 1.48 0 0 1-2.105 0l-24.688-5.3-5.238-24.753a1.496 1.496 0 0 1 0-2.114l23.804-6.185 6.122-23.867c.583-.586 2.105 0 2.105 0h0" style="color:#000;clip-rule:nonzero;display:inline;overflow:visible;visibility:visible;opacity:1;isolation:auto;mix-blend-mode:normal;color-interpolation:sRGB;color-interpolation-filters:linearRGB;solid-color:#000;solid-opacity:1;fill:#eee4da;fill-opacity:0;fill-rule:evenodd;stroke:#ffffff;stroke-width:16;stroke-linecap:round;stroke-linejoin:miter;stroke-miterlimit:4;stroke-dasharray:none;stroke-dashoffset:0;stroke-opacity:1;color-rendering:auto;image-rendering:auto;shape-rendering:auto;text-rendering:auto"/>
<path fill="none" d="m406.569 304.145 49.713 49.923c.969.97.969 2.542 0 3.512l-5.406 69.167-67.294 35.571a2.46 2.46 0 0 1-3.497 0L353.36 357.58a2.485 2.485 0 0 1 0-3.512l33.697-11.7 16.016-38.223c.969-.973 3.497 0 3.497 0v0M394.592 75.612l32.03 17.967 7.273 21.503c.767.767.767 2.01 0 2.777l3.336 30.344-42.639 9.126c-.76.77-2.003.77-2.765 0l-5.505-25.04-33.798-14.43a1.965 1.965 0 0 1 0-2.776l39.303-39.47c.766-.77 2.765 0 2.765 0v0" style="color:#000;clip-rule:nonzero;display:inline;overflow:visible;visibility:visible;opacity:1;isolation:auto;mix-blend-mode:normal;color-interpolation:sRGB;color-interpolation-filters:linearRGB;solid-color:#000;solid-opacity:1;fill:#eee4da;fill-opacity:0;fill-rule:evenodd;stroke:#ffffff;stroke-width:16;stroke-linecap:round;stroke-linejoin:miter;stroke-miterlimit:4;stroke-dasharray:none;stroke-dashoffset:0;stroke-opacity:1;color-rendering:auto;image-rendering:auto;shape-rendering:auto;text-rendering:auto"/>
<path d="M265.23 107.86V52.162" style="fill:#0f0;stroke:#ffffff;stroke-width:16;stroke-linecap:round;stroke-linejoin:round;stroke-miterlimit:1.1"/>
<g transform="translate(152.00 152.00) scale(0.11400)" shape-rendering="crispEdges"><defs><path id="lg-a" d="M0 0h2v2H0z"/></defs><g transform="matrix(100 100 -100 100 1000 0)"><use xlink:href="#lg-a" style="fill:#be3729"/><use xlink:href="#lg-a" id="lg-b" x="2" style="fill:#dc2919"/><use xlink:href="#lg-a" id="lg-c" x="4" style="fill:#e54b3a"/><use xlink:href="#lg-a" id="lg-e" x="6" style="fill:#e56934"/><use xlink:href="#lg-a" id="lg-d" x="8" style="fill:#e57c21"/></g><g transform="matrix(100 100 -100 100 600 0)"><use xlink:href="#lg-b"/><use xlink:href="#lg-c"/><use xlink:href="#lg-a" id="lg-f" x="10" style="fill:#e58a21"/></g><g transform="matrix(100 100 -100 100 200 0)"><use xlink:href="#lg-c"/><use xlink:href="#lg-d"/><use xlink:href="#lg-a" id="lg-g" x="12" style="fill:#f19a11"/></g><g transform="matrix(100 100 -100 100 -200 0)"><use xlink:href="#lg-e"/><use xlink:href="#lg-d"/><use xlink:href="#lg-f"/><use xlink:href="#lg-a" id="lg-h" x="14" style="fill:#f0ae0e"/></g><g transform="matrix(100 100 -100 100 -600 0)"><use xlink:href="#lg-d"/><use xlink:href="#lg-f"/><use xlink:href="#lg-g"/><use xlink:href="#lg-h"/><use xlink:href="#lg-a" x="16" style="fill:#f0c30e"/></g></g>
</g>
</svg>
